<svg width="408" height="408" viewBox="0 0 408 408" fill="none" xmlns="http://www.w3.org/2000/svg">
<g clip-path="url(#clip0)">
<path d="M325.882 57.796H81.7169C69.9689 57.796 60.4109 67.348 60.4109 79.095V328.521C60.4109 340.259 69.9629 349.818 81.7169 349.818H325.882C337.626 349.818 347.184 340.265 347.184 328.521V79.095C347.178 67.348 337.626 57.796 325.882 57.796ZM222.095 249.239H176.487L132.443 182.057V249.239H91.4899V84.329H132.443V151.514L176.487 84.329H222.095L167.314 166.84L222.095 249.239ZM365.832 0H41.7629C20.6259 0 3.48486 17.142 3.48486 38.281V369.316C3.48486 390.46 20.6259 407.6 41.7629 407.6H365.838C386.976 407.6 404.116 390.459 404.116 369.316V38.281C404.116 17.142 386.976 0 365.832 0ZM362.274 328.509C362.274 348.57 345.948 364.902 325.881 364.902H81.7169C61.6529 364.902 45.3209 348.576 45.3209 328.509V79.095C45.3209 59.037 61.6459 42.706 81.7169 42.706H325.882C345.943 42.706 362.275 59.032 362.275 79.095V328.509H362.274Z" fill="white"/>
</g>
<defs>
<clipPath id="clip0">
<rect width="407.601" height="407.601" fill="white"/>
</clipPath>
</defs>
</svg>
